<svg height="18" viewBox="0 0 18 18" width="18" xmlns="http://www.w3.org/2000/svg"><g fill="#e0c55e"><path d="m15.41 13.41v3.64c0 .18 0 .2-.2.2h-4.58c-.2 0-.22 0-.22-.22v-4.17c0-.23 0-.26-.24-.26h-2.37c-.22 0-.24 0-.24.26v4.14c0 .21 0 .23-.22.23h-4.55c-.19 0-.22 0-.22-.24v-7.16a.86.86 0 0 1 0-.16.38.38 0 0 1 .43-.34.4.4 0 0 1 .35.39v.32 6.1c0 .28 0 .31.28.31h2.86c.24 0 .27 0 .27-.28v-4.17c0-.23 0-.24.21-.24h4c.24 0 .25 0 .25.27v4c0 .37 0 .38.35.38h2.84c.21 0 .24 0 .24-.26v-6.32c0-.26.08-.4.26-.47a.37.37 0 0 1 .52.36v.55c-.02 1.05-.02 2.09-.02 3.14z"/><path d="m9 .74 1 1q3.57 3.45 7.14 6.93c.21.2.39.42.58.64a.17.17 0 0 1 0 .21c-.18.34-.44.4-.71.14l-2.14-2.1-5.3-5.13-.44-.43c-.13-.11-.13-.11-.29 0l-3.84 3.77-3.39 3.23c-.22.21-.43.43-.66.63a.71.71 0 0 1 -.27.18.42.42 0 0 1 -.47-.52.26.26 0 0 1 .09-.13c.49-.48 1-1 1.48-1.44l6.61-6.41z"/><path d="m13.69 2.19h1.52c.19 0 .2 0 .2.21v2.93a.39.39 0 0 1 -.26.41.35.35 0 0 1 -.43-.13.68.68 0 0 1 -.08-.31c0-.68 0-1.35 0-2 0-.21 0-.24-.23-.24h-2.13a1.11 1.11 0 0 1 -.37-.08.28.28 0 0 1 -.21-.29.37.37 0 0 1 .21-.39.71.71 0 0 1 .28-.06z"/></g><path d="m0 0h18v18h-18z" fill="none"/></svg>